<?xml version="1.0" encoding="UTF-8"?>
<svg id="Layer_2" data-name="Layer 2" xmlns="http://www.w3.org/2000/svg" viewBox="0 0 60.04 60.04">
  <defs>
    <style>
      .cls-1 {
        fill: #231f20;
      }

      .cls-2 {
        fill: #fff;
      }

      .cls-3 {
        fill-rule: evenodd;
      }

      .cls-3, .cls-4 {
        fill: #f36d21;
      }
    </style>
  </defs>
  <g id="Layer_1-2" data-name="Layer 1">
    <g>
      <rect class="cls-1" x="0" width="60.04" height="60.04" rx="6.58" ry="6.58"/>
      <g id="Icon">
        <path class="cls-2" d="M13.89,9.79h17.54c1.62,0,3.01-.06,4.61.31,2.24.51,4.3,1.62,5.96,3.2,2.58,2.51,4.07,5.93,4.15,9.52.07,3.65-1.24,7.31-3.82,9.95-1.99,2.06-4.66,3.33-7.52,3.58-1.01.09-2.45.04-3.48.04-1.9,0-3.8,0-5.7,0-.15,0-.27.12-.27.26-.06,4.46-.05,9.08-.05,13.55-.1.09-6.11,0-6.71,0-.13-4.65.08-9.4,0-14.06-.03-1.49.61-3.15,1.53-4.32,1.08-1.39,2.68-2.3,4.44-2.51.69-.08,1.79-.05,2.5-.05h4.03c1.13.01,2.77.09,3.83-.18.93-.24,1.79-.71,2.49-1.37,3.58-3.37,1.73-10.37-3.4-10.82-.51-.04-1.1-.02-1.62-.02h-2.7s-7,0-7,0c-1.26,0-2.58.02-3.83,0-.24-.31-.51-.69-.73-1.02-1.36-2.04-2.91-4.03-4.26-6.07Z"/>
        <path class="cls-3" d="M17.85,19.36c.64,0,1.18.41,1.38.98h12.6c.3,0,.6.12.81.34l1.42,1.46c.4.41.42,1.06.05,1.5l-1.44,1.69s-.07.07-.11.11c-.12.48-.56.84-1.09.84-.42,0-.78-.22-.97-.56h-10.96c-.07,0-.13.03-.17.08l-1.23,1.49h0s0,0,0,0l-1.49,1.78c.1.2.16.43.16.67,0,.8-.65,1.45-1.46,1.45s-1.46-.65-1.46-1.45.65-1.45,1.46-1.45c.24,0,.46.06.65.15l1.45-1.73,1.23-1.49c.21-.26.53-.41.86-.41h10.86c.14-.45.57-.78,1.07-.78.32,0,.61.13.81.35l1.14-1.33c.07-.09.07-.22,0-.3l-1.42-1.46s-.1-.07-.16-.07h-12.58c-.18.6-.74,1.03-1.39,1.03-.81,0-1.46-.65-1.46-1.45s.65-1.45,1.46-1.45ZM15.34,29.02c-.41,0-.74.33-.74.74s.33.74.74.74.74-.33.74-.74-.33-.74-.74-.74ZM17.85,20.07c-.41,0-.74.33-.74.74s.33.74.74.74.74-.33.74-.74-.33-.74-.74-.74Z"/>
        <path class="cls-4" d="M45.26,31.6c.04.23-.3,1.08-.39,1.32-.84,2.22-2.22,4.19-4.01,5.75-.34.29-.69.56-1.05.82s-.71.47-1.08.68-.73.38-1.1.54-.75.3-1.13.42-.78.22-1.17.3-.81.15-1.21.2-.84.09-1.26.11-.88.03-1.32.03c-.23,0-.45,0-.68-.01-.12,0-.23,0-.35-.01-.21,0-.27-.02-.34.19s-.14.41-.21.61c-.14.42-.29.84-.45,1.25-.59,1.57-1.26,3.14-2.23,4.51-.06.09-.47.6-.47.27v-9.11c0-.38-.01-.96.04-1.31.09-.11.15-.15.31-.16,2.43-.07,4.91.1,7.33-.04.79-.05,1.58-.17,2.35-.35,3.45-.85,6.57-2.93,8.43-5.99Z"/>
      </g>
    </g>
  </g>
</svg>